# xmcd
#
# Track frame offsets: 
#        150
#        15722
#        33599
#        51372
#        68506
#        80779
#        98718
#        116108
#        139406
#        150823
#        174519
#        189164
#        206849
#        226996
#        245738
#
# Disc length: 3488 seconds
#
# Revision: 0
# Processed by: cddbd v1.5.2PL0 Copyright (c) Steve Scherf et al.
# Submitted via: ExactAudioCopy v1.0b4
#
DISCID=ca0d9e0f
DTITLE=Jimmy Burns - It Ain’t Right
DYEAR=2015
DGENRE=Blues
TTITLE0=Big Money Problem
TTITLE1=Will I Ever Find Somebody?
TTITLE2=Snaggletooth Mule
TTITLE3=Long as You’re Mine
TTITLE4=Hard Hearted Woman
TTITLE5=My Heart Is Hangin’ Heavy
TTITLE6=Crazy Crazy Crazy
TTITLE7=A String to Your Heart
TTITLE8=Rock Awhile
TTITLE9=Stand by Me
TTITLE10=Surrounded
TTITLE11=I Know You Hear Me Calling
TTITLE12=It Ain’t Right
TTITLE13=Messin’ with the Kid
TTITLE14=Wade in the Water
EXTD=
EXTT0=
EXTT1=
EXTT2=
EXTT3=
EXTT4=
EXTT5=
EXTT6=
EXTT7=
EXTT8=
EXTT9=
EXTT10=
EXTT11=
EXTT12=
EXTT13=
EXTT14=
PLAYORDER=
